<svg width="36" height="36" viewBox="0 0 36 36" fill="none" xmlns="http://www.w3.org/2000/svg">
<circle cx="18" cy="18" r="18" fill="#D9D9D9"/>
<path d="M22.3976 20.1206L14.216 19.9301C10.2773 24.1946 11.247 26.1049 11.8767 27.0634C12.5063 28.0219 15.3805 29.0327 18.7869 28.9668C22.1932 28.9009 24.6887 27.5069 25.0947 25.6287C25.4194 24.1261 23.432 21.3305 22.3976 20.1206Z" fill="#55BDB3"/>
<path d="M15 7L16.2188 11H19.9688L21 7L19.2188 8.2L18.0938 7L16.9688 8.2L15 7Z" fill="#55BDB3"/>
<ellipse cx="18" cy="16.5" rx="8" ry="7.5" fill="white"/>
<path d="M14 17.5008C14 17.7758 13.7764 18 13.4997 18C13.2229 18 13 17.7758 13 17.5008C13 17.2258 13.2242 17 13.4997 17C13.7751 17 14 17.2248 14 17.5008Z" fill="#55BDB3"/>
<path d="M23 17.5008C23 17.7758 22.7757 18 22.5 18C22.2243 18 22 17.7758 22 17.5008C22 17.2258 22.2243 17 22.5 17C22.7757 17 23 17.2248 23 17.5008Z" fill="#55BDB3"/>
<path d="M15.043 20.3928C15.3597 20.8838 15.7909 21.2839 16.2963 21.5633C16.8017 21.842 17.3823 22 17.9999 22C18.618 22 19.1986 21.842 19.704 21.5633C20.2094 21.2839 20.6401 20.8838 20.9568 20.3928C21.0188 20.2964 21.0136 20.1475 20.9441 20.0603C20.8751 19.9737 20.7685 19.981 20.7061 20.078C20.4309 20.5056 20.0438 20.8697 19.5799 21.1253C19.1165 21.3815 18.577 21.5291 17.9999 21.5291C17.4233 21.5291 16.8838 21.3815 16.4204 21.1253C15.9565 20.8697 15.569 20.505 15.2938 20.078C15.2318 19.9816 15.1252 19.9737 15.0557 20.0603C14.9867 20.1469 14.981 20.2958 15.043 20.3928Z" fill="#55BDB3"/>
<path d="M28 17.9993C28 19.104 27.1054 20 25.9993 20C24.8932 20 24 19.104 24 17.9993C24 16.8946 24.8968 16 25.9993 16C27.1017 16 28 16.896 28 17.9993Z" fill="white"/>
<path d="M12 17.9993C12 19.104 11.1054 20 9.99927 20C8.89317 20 8 19.104 8 17.9993C8 16.8946 8.8968 16 9.99927 16C11.1017 16 12 16.896 12 17.9993Z" fill="white"/>
</svg>
