<svg width="150" height="132" viewBox="0 0 150 132" fill="none" xmlns="http://www.w3.org/2000/svg">
<path d="M49 0L59.3594 32H91.2344L100 0L84.8594 9.6L75.2969 0L65.7344 9.6L49 0Z" fill="#DBDBDB"/>
<ellipse cx="75.5" cy="74" rx="62.5" ry="58" fill="#DBDBDB"/>
<path d="M150 87.4952C150 95.5042 143.514 102 135.495 102C127.475 102 121 95.5042 121 87.4952C121 79.4862 127.502 73 135.495 73C143.488 73 150 79.4958 150 87.4952Z" fill="#DBDBDB"/>
<path d="M29 87.4952C29 95.5042 22.514 102 14.4947 102C6.47548 102 0 95.5042 0 87.4952C0 79.4862 6.50182 73 14.4947 73C22.4876 73 29 79.4958 29 87.4952Z" fill="#DBDBDB"/>
<path d="M56.7568 63.0832V82.2577H60.6666V86.9577H56.7568V94.4861H51.724V86.9577H37V82.2993C39.4401 79.1104 41.8387 75.9078 44.1956 72.6912C46.5526 69.4747 48.9511 66.272 51.3913 63.0832H56.7568ZM51.724 82.3409V72.6496C51.724 72.4555 51.724 72.1089 51.724 71.6098C51.7517 71.1107 51.7795 70.5838 51.8072 70.0293L42.6567 82.3409H51.724Z" fill="white"/>
<path d="M84.8615 79.055C84.8615 81.8001 84.5703 84.1848 83.988 86.209C83.4057 88.2055 82.5877 89.8692 81.534 91.2002C80.508 92.5035 79.288 93.474 77.8738 94.1117C76.4596 94.7495 74.9207 95.0684 73.257 95.0684C71.6487 95.0684 70.1375 94.7495 68.7233 94.1117C67.3369 93.474 66.1168 92.5035 65.0631 91.2002C64.0371 89.8692 63.233 88.2055 62.6507 86.209C62.0684 84.1848 61.7772 81.8001 61.7772 79.055C61.7772 76.2821 62.0684 73.8974 62.6507 71.901C63.233 69.8767 64.0371 68.213 65.0631 66.9098C66.1168 65.5788 67.3369 64.5944 68.7233 63.9566C70.1375 63.3189 71.6487 63 73.257 63C74.9207 63 76.4596 63.3189 77.8738 63.9566C79.288 64.5944 80.508 65.5788 81.534 66.9098C82.5877 68.213 83.4057 69.8767 83.988 71.901C84.5703 73.8974 84.8615 76.2821 84.8615 79.055ZM79.0384 79.055C79.0384 76.8367 78.872 75.0066 78.5393 73.5647C78.2343 72.0951 77.8183 70.9443 77.2915 70.1124C76.7647 69.2528 76.1408 68.6567 75.4198 68.3239C74.7266 67.9635 74.0056 67.7832 73.257 67.7832C72.536 67.7832 71.8289 67.9635 71.1357 68.3239C70.4702 68.6567 69.874 69.2528 69.3472 70.1124C68.8203 70.9443 68.3905 72.0951 68.0578 73.5647C67.7528 75.0066 67.6003 76.8367 67.6003 79.055C67.6003 81.2456 67.7528 83.0618 68.0578 84.5037C68.3905 85.9456 68.8203 87.0963 69.3472 87.9559C69.874 88.8155 70.4702 89.4117 71.1357 89.7445C71.8289 90.0772 72.536 90.2436 73.257 90.2436C74.0056 90.2436 74.7266 90.0772 75.4198 89.7445C76.1408 89.4117 76.7647 88.8155 77.2915 87.9559C77.8183 87.0963 78.2343 85.9456 78.5393 84.5037C78.872 83.0618 79.0384 81.2456 79.0384 79.055Z" fill="white"/>
<path d="M106.311 63.0832V82.2577H110.221V86.9577H106.311V94.4861H101.278V86.9577H86.5544V82.2993C88.9946 79.1104 91.3931 75.9078 93.7501 72.6912C96.107 69.4747 98.5056 66.272 100.946 63.0832H106.311ZM101.278 82.3409V72.6496C101.278 72.4555 101.278 72.1089 101.278 71.6098C101.306 71.1107 101.334 70.5838 101.362 70.0293L92.2111 82.3409H101.278Z" fill="white"/>
<path d="M46.0572 41C45.8406 43 46.1222 47 48.9807 47C51.8393 47 52.229 43 51.9042 41" stroke="white" stroke-width="2" stroke-linecap="round"/>
<path d="M29.0572 51C28.8406 53 29.1222 57 31.9807 57C34.8393 57 35.229 53 34.9042 51" stroke="white" stroke-width="2" stroke-linecap="round"/>
</svg>
