<svg width="216" height="216" viewBox="0 0 216 216" fill="none" xmlns="http://www.w3.org/2000/svg">
<path d="M216 108C216 167.647 167.647 216 108 216C48.3532 216 0 167.647 0 108C0 48.3532 48.3532 0 108 0C167.647 0 216 48.3532 216 108Z" fill="#D9D9D9"/>
<path d="M133.312 120.515L84.8228 119.386C61.4792 144.66 67.2264 155.982 70.9582 161.663C74.69 167.343 91.7242 173.334 111.912 172.943C132.101 172.553 146.89 164.291 149.296 153.16C151.221 144.254 139.442 127.686 133.312 120.515Z" fill="#55BDB3"/>
<path d="M88 42L95.7188 66H119.469L126 42L114.719 49.2L107.594 42L100.469 49.2L88 42Z" fill="#55BDB3"/>
<path d="M155 97.5C155 121.524 133.957 141 108 141C82.0426 141 61 121.524 61 97.5C61 73.4756 82.0426 54 108 54C133.957 54 155 73.4756 155 97.5Z" fill="white"/>
<path d="M88 101.007C88 103.207 86.2115 105 83.9974 105C81.7833 105 80 103.207 80 101.007C80 98.8065 81.7937 97 83.9974 97C86.201 97 88 98.7986 88 101.007Z" fill="#55BDB3"/>
<path d="M135 101.007C135 103.207 133.206 105 131 105C128.794 105 127 103.207 127 101.007C127 98.8065 128.794 97 131 97C133.206 97 135 98.7986 135 101.007Z" fill="#55BDB3"/>
<path d="M89.2655 115.767C91.2184 117.977 93.8772 119.778 96.9939 121.035C100.111 122.289 103.691 123 107.5 123C111.311 123 114.891 122.289 118.008 121.035C121.125 119.778 123.781 117.977 125.734 115.767C126.116 115.334 126.084 114.664 125.655 114.271C125.23 113.882 124.573 113.915 124.187 114.351C122.49 116.275 120.104 117.914 117.243 119.064C114.385 120.217 111.058 120.881 107.5 120.881C103.944 120.881 100.617 120.217 97.7589 119.064C94.8981 117.914 92.5088 116.272 90.8117 114.351C90.4292 113.917 89.7719 113.882 89.3436 114.271C88.918 114.661 88.883 115.331 89.2655 115.767Z" fill="#55BDB3"/>
<path d="M164 107.996C164 114.072 159.08 119 152.996 119C146.912 119 142 114.072 142 107.996C142 101.921 146.932 97 152.996 97C159.06 97 164 101.928 164 107.996Z" fill="white"/>
<path d="M73 107.996C73 114.072 68.0796 119 61.996 119C55.9124 119 51 114.072 51 107.996C51 101.921 55.9324 97 61.996 97C68.0596 97 73 101.928 73 107.996Z" fill="white"/>
</svg>
