<svg width="250" height="63" viewBox="0 0 250 63" fill="none" xmlns="http://www.w3.org/2000/svg">
<path d="M40.448 33.808C40.448 35.024 40.128 36.016 39.488 36.784C38.848 37.488 37.952 37.84 36.8 37.84C35.584 37.84 34.624 37.488 33.92 36.784C33.28 36.016 32.96 35.024 32.96 33.808V24.592C32.96 23.44 32.736 22.704 32.288 22.384C31.904 22 31.232 21.808 30.272 21.808H28.448C27.168 21.808 26.176 21.36 25.472 20.464V23.92C25.472 25.712 24.928 27.184 23.84 28.336C22.752 29.488 21.28 30.064 19.424 30.064H6.944C5.152 30.064 3.68 29.488 2.528 28.336C1.376 27.184 0.8 25.712 0.8 23.92V4.624C0.8 3.536 1.184 2.64 1.952 1.936C2.72 1.168 3.712 0.783998 4.928 0.783998C6.016 0.783998 6.944 1.168 7.712 1.936C8.544 2.64 8.96 3.536 8.96 4.624V6.928C8.96 7.632 9.12 8.144 9.44 8.464C9.76 8.72 10.08 8.816 10.4 8.752H15.776C16.864 8.752 17.408 8.112 17.408 6.832V4.432C17.408 3.28 17.76 2.352 18.464 1.648C19.232 0.879997 20.224 0.495996 21.44 0.495996C22.528 0.495996 23.456 0.879997 24.224 1.648C25.056 2.352 25.472 3.28 25.472 4.432V15.568C25.792 15.184 26.176 14.864 26.624 14.608C27.136 14.352 27.744 14.224 28.448 14.224H30.272C31.36 14.224 32.064 14 32.384 13.552C32.768 13.104 32.96 12.368 32.96 11.344V8.752C32.96 8.432 33.024 7.984 33.152 7.408C33.28 6.768 33.6 6.16 34.112 5.584C34.688 5.008 35.584 4.688 36.8 4.624C38.016 4.624 38.912 5.008 39.488 5.776C40.128 6.544 40.448 7.536 40.448 8.752V33.808ZM52.64 34C52.64 35.216 52.288 36.208 51.584 36.976C50.88 37.744 49.92 38.128 48.704 38.128C47.616 38.128 46.656 37.744 45.824 36.976C45.056 36.208 44.672 35.216 44.672 34V8.56C44.672 8.24 44.736 7.792 44.864 7.216C45.056 6.576 45.44 5.968 46.016 5.392C46.592 4.816 47.488 4.528 48.704 4.528C49.984 4.528 50.944 4.912 51.584 5.68C52.288 6.384 52.64 7.344 52.64 8.56V34ZM8.864 19.888C8.864 20.72 8.928 21.328 9.056 21.712C9.248 22.096 9.792 22.288 10.688 22.288H15.296C16.256 22.288 16.832 22.096 17.024 21.712C17.28 21.328 17.408 20.72 17.408 19.888V18.064C17.408 17.424 17.28 16.944 17.024 16.624C16.832 16.24 16.224 16.048 15.2 16.048H10.784C9.952 16.048 9.408 16.208 9.152 16.528C8.96 16.848 8.864 17.36 8.864 18.064V19.888ZM101.854 33.808C101.854 35.024 101.534 36.016 100.894 36.784C100.254 37.488 99.3583 37.84 98.2063 37.84C96.9903 37.84 96.0303 37.488 95.3263 36.784C94.6863 36.016 94.3663 35.024 94.3663 33.808V24.592C94.3663 23.44 94.1423 22.704 93.6943 22.384C93.3103 22 92.6383 21.808 91.6783 21.808H89.8543C88.5743 21.808 87.5823 21.36 86.8783 20.464V23.92C86.8783 25.712 86.3343 27.184 85.2463 28.336C84.1583 29.488 82.6863 30.064 80.8303 30.064H68.3503C66.5583 30.064 65.0863 29.488 63.9343 28.336C62.7823 27.184 62.2063 25.712 62.2063 23.92V4.624C62.2063 3.536 62.5903 2.64 63.3583 1.936C64.1263 1.168 65.1183 0.783998 66.3343 0.783998C67.4223 0.783998 68.3503 1.168 69.1183 1.936C69.9503 2.64 70.3663 3.536 70.3663 4.624V6.928C70.3663 7.632 70.5263 8.144 70.8463 8.464C71.1663 8.72 71.4863 8.816 71.8063 8.752H77.1823C78.2703 8.752 78.8143 8.112 78.8143 6.832V4.432C78.8143 3.28 79.1663 2.352 79.8703 1.648C80.6383 0.879997 81.6303 0.495996 82.8463 0.495996C83.9343 0.495996 84.8623 0.879997 85.6302 1.648C86.4623 2.352 86.8783 3.28 86.8783 4.432V15.568C87.1983 15.184 87.5823 14.864 88.0303 14.608C88.5423 14.352 89.1503 14.224 89.8543 14.224H91.6783C92.7663 14.224 93.4703 14 93.7903 13.552C94.1743 13.104 94.3663 12.368 94.3663 11.344V8.752C94.3663 8.432 94.4303 7.984 94.5583 7.408C94.6863 6.768 95.0063 6.16 95.5183 5.584C96.0943 5.008 96.9903 4.688 98.2063 4.624C99.4223 4.624 100.318 5.008 100.894 5.776C101.534 6.544 101.854 7.536 101.854 8.752V33.808ZM114.046 34C114.046 35.216 113.694 36.208 112.99 36.976C112.286 37.744 111.326 38.128 110.11 38.128C109.022 38.128 108.062 37.744 107.23 36.976C106.462 36.208 106.078 35.216 106.078 34V8.56C106.078 8.24 106.142 7.792 106.27 7.216C106.462 6.576 106.846 5.968 107.422 5.392C107.998 4.816 108.894 4.528 110.11 4.528C111.39 4.528 112.35 4.912 112.99 5.68C113.694 6.384 114.046 7.344 114.046 8.56V34ZM70.2703 19.888C70.2703 20.72 70.3343 21.328 70.4623 21.712C70.6543 22.096 71.1983 22.288 72.0943 22.288H76.7023C77.6623 22.288 78.2383 22.096 78.4303 21.712C78.6863 21.328 78.8143 20.72 78.8143 19.888V18.064C78.8143 17.424 78.6863 16.944 78.4303 16.624C78.2383 16.24 77.6303 16.048 76.6063 16.048H72.1903C71.3583 16.048 70.8143 16.208 70.5583 16.528C70.3663 16.848 70.2703 17.36 70.2703 18.064V19.888ZM148.975 30.544C147.183 30.544 145.711 29.968 144.559 28.816C143.407 27.664 142.831 26.192 142.831 24.4V12.496C142.831 10.704 143.407 9.264 144.559 8.176C145.711 7.088 147.183 6.544 148.975 6.544H161.263C163.055 6.544 164.495 7.088 165.583 8.176C166.735 9.264 167.311 10.704 167.311 12.496V24.4C167.311 26.192 166.735 27.664 165.583 28.816C164.495 29.968 163.055 30.544 161.263 30.544H148.975ZM174.799 8.656C174.799 7.376 175.183 6.384 175.951 5.68C176.719 4.976 177.711 4.624 178.927 4.624C180.143 4.624 181.007 4.912 181.519 5.488C182.095 6.064 182.479 6.672 182.671 7.312C182.863 7.888 182.959 8.336 182.959 8.656V13.456C182.959 15.184 183.759 16.048 185.359 16.048H187.855C189.327 16.048 190.351 16.432 190.927 17.2C191.503 17.968 191.791 18.832 191.791 19.792C191.791 20.88 191.439 21.808 190.735 22.576C190.031 23.28 189.071 23.632 187.855 23.632H185.359C183.759 23.632 182.959 24.336 182.959 25.744V34.096C182.959 35.312 182.543 36.304 181.711 37.072C180.943 37.84 180.015 38.224 178.927 38.224C177.711 38.224 176.719 37.84 175.951 37.072C175.183 36.304 174.799 35.312 174.799 34.096V8.656ZM150.799 19.888C150.799 20.72 150.895 21.424 151.087 22C151.343 22.512 151.919 22.768 152.815 22.768H156.847C157.871 22.768 158.511 22.512 158.767 22C159.087 21.424 159.247 20.72 159.247 19.888V16.72C159.247 16.016 159.087 15.408 158.767 14.896C158.511 14.384 157.839 14.128 156.751 14.128H153.103C152.207 14.128 151.599 14.416 151.279 14.992C150.959 15.504 150.799 16.08 150.799 16.72V19.888ZM222.061 27.664C222.061 28.752 221.645 29.68 220.813 30.448C220.045 31.216 219.085 31.6 217.933 31.6C216.845 31.6 215.917 31.216 215.149 30.448C214.381 29.68 213.997 28.752 213.997 27.664V24.304C213.997 23.088 213.325 22.48 211.981 22.48H201.037C199.949 22.48 199.021 22.128 198.253 21.424C197.485 20.72 197.101 19.888 197.101 18.928C197.101 17.904 197.485 17.04 198.253 16.336C199.021 15.568 199.949 15.184 201.037 15.184H211.789C212.493 15.184 213.037 14.992 213.421 14.608C213.805 14.16 213.997 13.68 213.997 13.168V12.208C213.997 11.44 213.805 10.864 213.421 10.48C213.101 10.032 212.333 9.808 211.117 9.808H200.749C199.533 9.808 198.541 9.488 197.773 8.848C197.005 8.144 196.621 7.184 196.621 5.968C196.621 4.816 197.005 3.92 197.773 3.28C198.541 2.576 199.533 2.224 200.749 2.224H216.013C217.677 2.224 219.085 2.736 220.237 3.76C221.453 4.72 222.061 6.192 222.061 8.176V15.856C222.701 14.768 223.757 14.224 225.229 14.224H227.053C228.141 14.224 228.845 14 229.165 13.552C229.549 13.104 229.741 12.368 229.741 11.344V8.752C229.741 8.432 229.805 7.984 229.933 7.408C230.061 6.768 230.381 6.16 230.893 5.584C231.469 5.008 232.365 4.688 233.581 4.624C234.797 4.624 235.693 5.008 236.269 5.776C236.909 6.544 237.229 7.536 237.229 8.752V33.808C237.229 35.024 236.909 36.016 236.269 36.784C235.629 37.488 234.733 37.84 233.581 37.84C232.365 37.84 231.405 37.488 230.701 36.784C230.061 36.016 229.741 35.024 229.741 33.808V24.592C229.741 23.44 229.517 22.704 229.069 22.384C228.685 22 228.013 21.808 227.053 21.808H225.229C223.693 21.808 222.637 21.264 222.061 20.176V27.664ZM241.069 60.88C240.045 59.984 239.149 59.12 238.381 58.288C237.677 57.52 236.909 56.72 236.077 55.888C235.117 54.992 234.253 54.48 233.485 54.352C232.717 54.288 231.821 54.736 230.797 55.696L224.845 61.648C223.821 62.544 222.733 62.832 221.581 62.512C220.429 62.256 219.501 61.808 218.797 61.168C218.029 60.272 217.709 59.28 217.837 58.192C217.965 57.168 218.445 56.336 219.277 55.696C219.725 55.312 220.173 54.96 220.621 54.64C221.069 54.32 221.517 53.968 221.965 53.584C223.821 52.176 225.485 50.672 226.957 49.072C228.493 47.472 229.229 45.264 229.165 42.448C229.037 41.296 229.389 40.368 230.221 39.664C231.053 38.896 232.013 38.512 233.101 38.512C234.253 38.512 235.245 38.896 236.077 39.664C236.909 40.368 237.261 41.296 237.133 42.448C236.941 45.2 237.581 47.344 239.053 48.88C240.589 50.416 242.413 51.952 244.525 53.488C244.909 53.68 245.261 53.904 245.581 54.16C245.965 54.416 246.317 54.672 246.637 54.928C247.469 55.568 247.885 56.496 247.885 57.712C247.949 58.992 247.597 60.048 246.829 60.88C246.061 61.648 245.101 62.032 243.949 62.032C242.797 62.096 241.837 61.712 241.069 60.88ZM249.421 34C249.421 35.216 249.069 36.208 248.365 36.976C247.661 37.744 246.701 38.128 245.485 38.128C244.397 38.128 243.437 37.744 242.605 36.976C241.837 36.208 241.453 35.216 241.453 34V8.56C241.453 8.24 241.517 7.792 241.645 7.216C241.837 6.576 242.221 5.968 242.797 5.392C243.373 4.816 244.269 4.528 245.485 4.528C246.765 4.528 247.725 4.912 248.365 5.68C249.069 6.384 249.421 7.344 249.421 8.56V34Z" fill="#55BDB3"/>
</svg>
