<svg width="113" height="99" viewBox="0 0 113 99" fill="none" xmlns="http://www.w3.org/2000/svg">
<path d="M37 0L44.7188 24H68.4688L75 0L63.7188 7.2L56.5938 0L49.4688 7.2L37 0Z" fill="#DBDBDB"/>
<ellipse cx="57" cy="55.5" rx="47" ry="43.5" fill="#DBDBDB"/>
<path d="M37 59.0065C37 61.2066 35.2115 63 32.9974 63C30.7833 63 29 61.2066 29 59.0065C29 56.8065 30.7937 55 32.9974 55C35.201 55 37 56.7986 37 59.0065Z" fill="white"/>
<path d="M84 59.0065C84 61.2066 82.206 63 80 63C77.794 63 76 61.2066 76 59.0065C76 56.8065 77.794 55 80 55C82.206 55 84 56.7986 84 59.0065Z" fill="white"/>
<path d="M38.2655 73.7674C40.2184 75.977 42.8772 77.7776 45.9939 79.0347C49.1105 80.2891 52.6906 81 56.4995 81C60.3112 81 63.8912 80.2891 67.0079 79.0347C70.1246 77.7776 72.7806 75.977 74.7336 73.7674C75.1161 73.3337 75.0838 72.664 74.6555 72.2715C74.2299 71.8817 73.5726 71.9146 73.1874 72.3511C71.4903 74.2752 69.1036 75.9138 66.2429 77.0639C63.3848 78.2167 60.058 78.881 56.4995 78.881C52.9438 78.881 49.617 78.2167 46.7589 77.0639C43.8981 75.9138 41.5088 74.2724 39.8117 72.3511C39.4292 71.9174 38.7719 71.8817 38.3436 72.2715C37.918 72.6612 37.883 73.331 38.2655 73.7674Z" fill="white"/>
<path d="M113 65.9963C113 72.0721 108.08 77 101.996 77C95.9124 77 91 72.0721 91 65.9963C91 59.9206 95.9324 55 101.996 55C108.06 55 113 59.9279 113 65.9963Z" fill="#DBDBDB"/>
<path d="M22 65.9963C22 72.0721 17.0796 77 10.996 77C4.91243 77 0 72.0721 0 65.9963C0 59.9206 4.93242 55 10.996 55C17.0596 55 22 59.9279 22 65.9963Z" fill="#DBDBDB"/>
</svg>
