<svg width="16" height="16" viewBox="0 0 16 16" fill="none" xmlns="http://www.w3.org/2000/svg">
<path d="M16 8C16 12.4183 12.4183 16 8 16C3.58172 16 0 12.4183 0 8C0 3.58172 3.58172 0 8 0C12.4183 0 16 3.58172 16 8Z" fill="#D9D9D9"/>
<path d="M9.87497 8.92706L6.28317 8.84343C4.55402 10.7156 4.97973 11.5542 5.25616 11.975C5.53259 12.3958 6.79439 12.8395 8.2898 12.8106C9.78522 12.7817 10.8808 12.1697 11.059 11.3452C11.2016 10.6855 10.3291 9.45823 9.87497 8.92706Z" fill="#55BDB3"/>
<path d="M6.51852 3.11111L7.09028 4.88889H8.84954L9.33333 3.11111L8.49769 3.64444L7.96991 3.11111L7.44213 3.64444L6.51852 3.11111Z" fill="#55BDB3"/>
<path d="M11.4815 7.22222C11.4815 9.00181 9.92277 10.4444 8 10.4444C6.07723 10.4444 4.51852 9.00181 4.51852 7.22222C4.51852 5.44264 6.07723 4 8 4C9.92277 4 11.4815 5.44264 11.4815 7.22222Z" fill="white"/>
<path d="M6.51852 7.48196C6.51852 7.64493 6.38604 7.77778 6.22203 7.77778C6.05802 7.77778 5.92593 7.64493 5.92593 7.48196C5.92593 7.319 6.0588 7.18519 6.22203 7.18519C6.38526 7.18519 6.51852 7.31842 6.51852 7.48196Z" fill="#55BDB3"/>
<path d="M10 7.48196C10 7.64493 9.86711 7.77778 9.7037 7.77778C9.5403 7.77778 9.40741 7.64493 9.40741 7.48196C9.40741 7.319 9.5403 7.18519 9.7037 7.18519C9.86711 7.18519 10 7.31842 10 7.48196Z" fill="#55BDB3"/>
<path d="M6.61226 8.57536C6.75692 8.73903 6.95387 8.87241 7.18473 8.96553C7.4156 9.05845 7.68078 9.11111 7.96293 9.11111C8.24527 9.11111 8.51046 9.05845 8.74133 8.96553C8.97219 8.87241 9.16893 8.73903 9.3136 8.57536C9.34193 8.54324 9.33954 8.49363 9.30781 8.46455C9.27629 8.43568 9.2276 8.43812 9.19907 8.47045C9.07336 8.61298 8.89657 8.73436 8.68466 8.81955C8.47295 8.90494 8.22652 8.95415 7.96293 8.95415C7.69954 8.95415 7.45311 8.90494 7.2414 8.81955C7.02949 8.73436 6.8525 8.61277 6.72679 8.47045C6.69846 8.43832 6.64977 8.43568 6.61804 8.46455C6.58652 8.49342 6.58392 8.54303 6.61226 8.57536Z" fill="#55BDB3"/>
<path d="M12.1481 7.99973C12.1481 8.44979 11.7837 8.81481 11.333 8.81481C10.8824 8.81481 10.5185 8.44979 10.5185 7.99973C10.5185 7.54967 10.8839 7.18519 11.333 7.18519C11.7822 7.18519 12.1481 7.55021 12.1481 7.99973Z" fill="white"/>
<path d="M5.40741 7.99973C5.40741 8.44979 5.04293 8.81481 4.5923 8.81481C4.14166 8.81481 3.77778 8.44979 3.77778 7.99973C3.77778 7.54967 4.14314 7.18519 4.5923 7.18519C5.04145 7.18519 5.40741 7.55021 5.40741 7.99973Z" fill="white"/>
</svg>
