<svg width="18" height="16" viewBox="0 0 18 16" fill="none" xmlns="http://www.w3.org/2000/svg">
<path d="M15.9202 2.01322C15.5204 1.60554 15.0456 1.28215 14.5231 1.0615C14.0006 0.84086 13.4406 0.727295 12.875 0.727295C12.3094 0.727295 11.7494 0.84086 11.2268 1.0615C10.7043 1.28215 10.2296 1.60554 9.82977 2.01322L8.99997 2.85889L8.17017 2.01322C7.36252 1.19013 6.26713 0.727722 5.12495 0.727722C3.98277 0.727722 2.88737 1.19013 2.07973 2.01322C1.27209 2.83631 0.818359 3.95266 0.818359 5.11668C0.818359 6.28071 1.27209 7.39706 2.07973 8.22015L2.90953 9.06582L8.99997 15.2728L15.0904 9.06582L15.9202 8.22015C16.3202 7.81266 16.6376 7.32885 16.8541 6.79635C17.0706 6.26385 17.182 5.69309 17.182 5.11668C17.182 4.54028 17.0706 3.96952 16.8541 3.43702C16.6376 2.90452 16.3202 2.4207 15.9202 2.01322Z" fill="#55BDB3"/>
</svg>
